<?xml version="1.0" encoding="UTF-8"?>
<!DOCTYPE svg PUBLIC "-//W3C//DTD SVG 1.1//EN"
  "http://www.w3.org/Graphics/SVG/1.1/DTD/svg11.dtd">
<svg xmlns:inkpad="http://taptrix.com/inkpad/svg_extensions" height="500pt" xmlns:xlink="http://www.w3.org/1999/xlink" xmlns="http://www.w3.org/2000/svg" width="500pt" version="1.1" viewBox="0,0,500,500">
  <image href="cabbageT2.png" height="500" width="500"/>
  <g id="blush" stroke="#ec00a1" stroke-width="5" fill="none" stroke-linecap="round" opacity="0" stroke-linejoin="round">
    <circle opacity="0" stroke="#000" fill="#000" cx="250" cy="250" r="250"/>
    <path d="M409+311C404+318+402+320+397+328M420+308C416+317+412+324+406+331M431+308C426+316+422+325+417+333M442+308C438+314+433+325+429+331M450+315C447+319+444+324+441+328
             M288+339C284+344+279+347+274+351M298+340C291+347+287+351+279+357M307+341C303+347+293+357+288+362M317+342C314+347+306+358+302+362M326+342C325+345+319+358+317+361M328+360C330+356+331+354+332+346" />
    <animate attributeName="opacity" values="0;1" dur="3s" fill="freeze" begin="click"/>
  </g>
  <g id="eyes" opacity="0.4">
    <path d="M339+253C328+247+317+244+305+249C281+259+275+312+305+330C316+336+331+332+338+321C349+305+359+266+339+253Z" fill="#182f13" opacity="1" stroke-linejoin="round"/>
    <path d="M408+225 C 358+211+370+295+395+301 C 414+306+427+290+430+276 C 436+249+433+231+408+225Z" fill="#182f13" opacity="1" stroke-linejoin="round"/>
    <path d="M407+260 C 411+247+397+238+388+243 C 382+247+382+259+388+263 C 395+269+404+266+407+260Z" opacity="1" fill="#ffffff"/>
    <path d="M307+292 C 323+302+337+270+324+265 C 290+255+290+280+307+292Z" opacity="1" fill="#ffffff"/>
  </g>
</svg>
